# xmcd CD database file
#
# Track frame offsets:
#	187
#	3280
#	27912
#	50352
#	82867
#	102165
#	129095
#	144880
#	167200
#	186730
#
# Disc length: 2595 seconds
#
# Revision: 5
# Processed by: cddbd v1.5.1PL0 Copyright (c) Steve Scherf et al.
# Submitted via: CDex 1.51
#
DISCID=740a210a
DTITLE=Blind Guardian - Follow The Blind
DYEAR=1991
DGENRE=Heavy Metal
TTITLE0=Inquisition
TTITLE1=Banish  From Sanctuary
TTITLE2=Damned For All Time
TTITLE3=Follow The Blind
TTITLE4=Hall Of The King
TTITLE5=Fast To Madness
TTITLE6=Beyond The Ice
TTITLE7=Valhalla
TTITLE8=Don't Break The Circle
TTITLE9=Barbara Ann
EXTD=YEAR: 1991
EXTT0=
EXTT1=
EXTT2=
EXTT3=
EXTT4=
EXTT5=
EXTT6=
EXTT7=
EXTT8=
EXTT9=
PLAYORDER=
